# xmcd
#
# Track frame offsets: 
#        150
#        58407
#        99302
#        124757
#        164325
#        222225
#        275790
#        303987
#
# Disc length: 4618 seconds
#
# Revision: 0
# Processed by: cddbd v1.5.2PL0 Copyright (c) Steve Scherf et al.
# Submitted via: ExactAudioCopy v1.0b1
#
DISCID=76120808
DTITLE=Eugen Jochum - Brahms Symphony No.3 and 4 ,Japan EMI ,CD9
DYEAR=2002
DGENRE=Classical
TTITLE0=Symphony No. 3 I: Allegro Con Brio - Un Poco Sostenuto - Tempo
TTITLE0=I 
TTITLE1=Symphony No. 3 II: Andante 
TTITLE2=Symphony No. 3 III: Poco Allegretto 
TTITLE3=Symphony No. 3 IV: Allegro - Un Poco Sostenuto 
TTITLE4=Symphony No. 4 In E Minor, Op.98: I: Allegro non troppo 
TTITLE5=Symphony No. 4 In E Minor, Op.98: II: Andante moderato 
TTITLE6=Symphony No. 4 In E Minor, Op.98: III: Allegro giocosco 
TTITLE7=Symphony No. 4 In E Minor, Op.98: IV: Allegro energico e passi
TTITLE7=onato 
EXTD=
EXTT0=
EXTT1=
EXTT2=
EXTT3=
EXTT4=
EXTT5=
EXTT6=
EXTT7=
PLAYORDER=
